<svg width="81" height="80" viewBox="0 0 81 80" fill="none" xmlns="http://www.w3.org/2000/svg">
<g clip-path="url(#clip0_8_2)">
<path fill-rule="evenodd" clip-rule="evenodd" d="M53.2739 25.9449H49.3413L42.951 44.9496V67.9554L43.4643 67.9108L47.3928 66.9117L47.3182 58.453H60.1558L60.6473 53.9519H47.3751V51.9514H63.5967L64.1004 47.4503H47.3182V46.4342L49.3413 40.4485V44.9496H64.5798L65.0714 40.4485H53.2739V25.9449Z" fill="#7791A9"/>
<path d="M43.2549 67.8994C46.8589 67.6691 50.3822 66.7318 53.6236 65.141C56.8651 63.5502 59.7612 61.3371 62.1467 58.6279C64.5321 55.9187 66.3602 52.7666 67.5265 49.3516C68.6927 45.9365 69.1744 42.3253 68.944 38.7242C68.7135 35.1232 67.7754 31.6027 66.1833 28.3639C64.5912 25.125 62.3763 22.2313 59.6649 19.8477C56.9536 17.4642 53.7989 15.6376 50.3811 14.4723C46.9632 13.307 43.3491 12.8257 39.7451 13.056L40.0185 17.3276C43.0611 17.1332 46.1122 17.5395 48.9976 18.5233C51.883 19.5071 54.5463 21.0491 56.8353 23.0614C59.1243 25.0736 60.9942 27.5166 62.3383 30.2509C63.6824 32.9852 64.4743 35.9573 64.6689 38.9974C64.8634 42.0375 64.4568 45.0861 63.4722 47.9692C62.4876 50.8523 60.9443 53.5134 58.9304 55.8005C56.9166 58.0877 54.4716 59.9561 51.7351 61.2991C48.9985 62.6421 46.0241 63.4334 42.9815 63.6278L43.2549 67.8994Z" fill="#7791A9"/>
<path fill-rule="evenodd" clip-rule="evenodd" d="M29.7261 25.9449H33.6587L40.049 44.9496V67.9554L39.5357 67.9108L35.6072 66.9117L35.6818 58.453H22.8442L22.3527 53.9519H35.6249V51.9514H19.4033L18.8996 47.4503H35.6818V46.4342L33.6587 40.4485V44.9496H18.4202L17.9286 40.4485H29.7261V25.9449Z" fill="#7791A9"/>
<path d="M39.7653 67.9007C36.1612 67.6731 32.6372 66.7384 29.3945 65.1499C26.1519 63.5615 23.2541 61.3505 20.8667 58.6431C18.4792 55.9356 16.6489 52.7849 15.4801 49.3707C14.3113 45.9565 13.827 42.3456 14.0548 38.7444C14.2826 35.1432 15.218 31.622 16.8077 28.382C18.3975 25.142 20.6103 22.2466 23.3199 19.8611C26.0295 17.4756 29.1828 15.6467 32.5998 14.4788C36.0168 13.311 39.6305 12.8271 43.2347 13.0547L42.9645 17.3265C39.9217 17.1344 36.8709 17.5429 33.9862 18.5288C31.1015 19.5147 28.4394 21.0587 26.1519 23.0726C23.8644 25.0865 21.9963 27.5309 20.6542 30.2662C19.3121 33.0015 18.5224 35.9742 18.3301 39.0144C18.1377 42.0547 18.5466 45.103 19.5333 47.9854C20.5201 50.8677 22.0653 53.5277 24.0808 55.8133C26.0964 58.099 28.5427 59.9656 31.2803 61.3066C34.0178 62.6476 36.9928 63.4367 40.0355 63.6289L39.7653 67.9007Z" fill="#7791A9"/>
</g>
<path d="M71.6098 65.1569C71.3337 65.4892 71.0537 65.6969 70.7698 65.78C70.4852 65.8555 70.1956 65.8369 69.9011 65.724C69.6059 65.6036 69.3086 65.419 69.0091 65.1702L66.9414 63.4526C66.6378 63.2004 66.4076 62.9434 66.2508 62.6814C66.0934 62.4119 66.0298 62.1337 66.06 61.8469C66.0937 61.5559 66.2452 61.2484 66.5144 60.9243C66.7802 60.6043 67.0513 60.4031 67.3278 60.3207C67.6076 60.2343 67.8927 60.2458 68.1831 60.3553C68.4694 60.4613 68.7643 60.6405 69.0679 60.8926L71.1417 62.6153C71.4412 62.8641 71.6735 63.1229 71.8385 63.3917C72.0028 63.6529 72.0739 63.9304 72.0518 64.2241C72.0297 64.5177 71.8824 64.8287 71.6098 65.1569ZM71.2344 64.8451C71.415 64.6276 71.5099 64.4257 71.5192 64.2393C71.5244 64.0494 71.466 63.8692 71.3442 63.6987C71.2217 63.5207 71.0558 63.3448 70.8466 63.1709L68.5881 61.2949C68.3789 61.1211 68.1776 60.992 67.9842 60.9077C67.7943 60.8192 67.6105 60.7983 67.4331 60.845C67.2515 60.8883 67.0704 61.0187 66.8898 61.2361C66.7057 61.4577 66.6074 61.6637 66.5947 61.8542C66.5814 62.0373 66.6339 62.2161 66.7523 62.3907C66.8741 62.5613 67.0396 62.7334 67.2489 62.9072L69.5073 64.7833C69.7165 64.9571 69.9182 65.0899 70.1123 65.1818C70.3057 65.2661 70.4952 65.2884 70.6809 65.2485C70.8658 65.2011 71.0503 65.0666 71.2344 64.8451Z" fill="#7791A9"/>
<path d="M75.4203 59.4589L70.1914 56.5L69.5886 57.5653L69.1778 57.3328L70.6671 54.701L71.0779 54.9335L70.4909 55.9709L75.7197 58.9298L75.4203 59.4589Z" fill="#7791A9"/>
<path d="M77.8306 54.4064L71.75 52.1665L71.9629 51.5885L74.7555 52.6172L74.9131 52.1893L72.5796 49.9145L72.7925 49.3364L75.2335 51.7361L78.9478 51.3736L78.7348 51.9516L75.2237 52.2951L75.0633 52.7305L78.0435 53.8284L77.8306 54.4064Z" fill="#7791A9"/>
<path d="M79.6752 48.2652L73.313 47.0354L73.6075 45.5116C73.6814 45.1294 73.8103 44.8419 73.9942 44.6493C74.1781 44.4567 74.4043 44.3402 74.6728 44.2998C74.9424 44.2541 75.2474 44.2642 75.5877 44.33C75.8862 44.3876 76.1541 44.491 76.3915 44.6401C76.6246 44.783 76.7953 44.9816 76.9037 45.2361C77.013 45.4854 77.0328 45.7907 76.9629 46.152L76.7823 47.0867L79.7906 47.6682L79.6752 48.2652ZM76.3346 47.0002L76.4818 46.2383C76.5314 45.9817 76.5347 45.7678 76.4918 45.5965C76.4446 45.419 76.3391 45.2764 76.1752 45.1687C76.0114 45.061 75.7776 44.9778 75.4739 44.919C75.1492 44.8563 74.8918 44.8391 74.7016 44.8676C74.5062 44.895 74.3593 44.9806 74.2608 45.1246C74.1582 45.2623 74.0795 45.4725 74.0248 45.7553L73.8761 46.525L76.3346 47.0002Z" fill="#7791A9"/>
<path d="M80.5121 41.8725L74.0335 41.7376L74.0463 41.1217L76.7658 41.1783L76.7772 40.6265C76.786 40.2052 76.8599 39.86 76.9988 39.5908C77.1326 39.3162 77.3395 39.1152 77.6195 38.9876C77.8996 38.8601 78.2662 38.8011 78.7195 38.8105C79.0127 38.8166 79.2733 38.8567 79.5011 38.9308C79.7291 38.9995 79.9215 39.1102 80.0783 39.2629C80.2352 39.4155 80.3538 39.61 80.4343 39.8464C80.5095 40.0774 80.5437 40.3555 80.5369 40.6807L80.5121 41.8725ZM80.061 41.2469L80.073 40.6711C80.0792 40.3725 80.0389 40.1316 79.952 39.9484C79.8598 39.7651 79.7106 39.6313 79.5043 39.547C79.2981 39.4573 79.0297 39.4091 78.6991 39.4022C78.2299 39.3924 77.8734 39.4757 77.6297 39.652C77.3807 39.8282 77.2513 40.1482 77.2416 40.6121L77.2297 41.188L80.061 41.2469ZM80.5912 38.0733L74.1126 37.9384L74.1253 37.3305L80.6039 37.4654L80.5912 38.0733Z" fill="#7791A9"/>
<path d="M80.1 34.0862L74.1589 34.9798L74.3409 36.1902L73.8742 36.2604L73.4244 33.2701L73.8911 33.1999L74.0684 34.3786L80.0096 33.485L80.1 34.0862Z" fill="#7791A9"/>
<path d="M78.4864 27.1277C78.6188 27.539 78.6438 27.8867 78.5616 28.1709C78.4726 28.4516 78.3015 28.6859 78.0482 28.8739C77.7882 29.0584 77.4729 29.2103 77.1023 29.3295L74.5435 30.1528C74.1678 30.2737 73.8274 30.3301 73.5222 30.3218C73.2103 30.3101 72.9414 30.2145 72.7156 30.0351C72.4881 29.8506 72.3099 29.5577 72.1808 29.1567C72.0534 28.7607 72.0291 28.4239 72.1079 28.1464C72.1851 27.8639 72.3477 27.6295 72.5959 27.4432C72.8391 27.2585 73.1485 27.1057 73.5242 26.9848L76.0906 26.159C76.4612 26.0398 76.8042 25.9826 77.1195 25.9876C77.4282 25.9892 77.7005 26.078 77.9365 26.2542C78.1724 26.4304 78.3558 26.7216 78.4864 27.1277ZM78.0219 27.2772C77.9353 27.0081 77.8159 26.8197 77.6635 26.7118C77.5061 26.6056 77.3227 26.5581 77.1135 26.5694C76.8975 26.5773 76.66 26.6229 76.4011 26.7062L73.6062 27.6055C73.3473 27.6888 73.1304 27.7894 72.9554 27.9074C72.7788 28.0202 72.6626 28.164 72.6068 28.3389C72.5459 28.5153 72.5588 28.7381 72.6454 29.0072C72.7336 29.2813 72.8547 29.4749 73.0087 29.5878C73.156 29.6973 73.3351 29.7489 73.5459 29.7427C73.7552 29.7314 73.9893 29.6841 74.2482 29.6008L77.0431 28.7015C77.302 28.6182 77.5223 28.5193 77.704 28.4048C77.879 28.2868 77.9994 28.1388 78.0654 27.9607C78.1246 27.7792 78.1101 27.5514 78.0219 27.2772Z" fill="#7791A9"/>
<path d="M76.5534 22.6565L70.7858 25.6104L69.7173 23.5241L70.1374 23.3089L70.9251 24.847L73.0897 23.7384L72.4479 22.4851L72.8466 22.2809L73.4885 23.5341L75.8667 22.3161L75.0717 20.7639L75.4776 20.556L76.5534 22.6565Z" fill="#7791A9"/>
<path d="M70.3066 13.4082L64.6845 16.9086L64.2413 16.4469L67.9632 10.9668L68.3787 11.3997L67.3479 12.8327L68.4171 13.9466L69.8967 12.9811L70.3066 13.4082ZM68.0388 14.1878L67.0859 13.1951L65.0402 16.1124L68.0388 14.1878Z" fill="#7791A9"/>
<path d="M65.36 8.81886L61.4702 14.0015L60.9775 13.6317L62.7639 11.2516L62.3992 10.9778L59.5507 12.5608L59.058 12.1911L62.057 10.5409L62.775 6.87876L63.2677 7.24853L62.5897 10.7107L62.9608 10.9892L64.8673 8.44909L65.36 8.81886Z" fill="#7791A9"/>
<path d="M57.4677 2.73076L57.0102 3.74585L59.9717 5.26413L57.0154 11.0305L56.4672 10.7495L59.2155 5.38888L57.3218 4.41806L54.5736 9.77863L54.0254 9.4976L56.7737 4.13703L56.3181 3.90344L57.0334 2.50813L57.4677 2.73076Z" fill="#7791A9"/>
<path d="M53.5612 2.46906L51.6237 8.65266L51.1046 8.49001L52.6402 3.58894L49.1045 7.86334L48.6541 7.72222L50.5915 1.53863L51.1106 1.70127L49.5679 6.62525L53.1031 2.32555L53.5612 2.46906Z" fill="#7791A9"/>
<path d="M45.8273 0.633368C46.2549 0.694341 46.5785 0.823981 46.7981 1.02229C47.0116 1.22512 47.1474 1.48152 47.2056 1.7915C47.2577 2.10601 47.2563 2.45598 47.2014 2.84142L46.822 5.50251C46.7663 5.89322 46.6679 6.22399 46.527 6.4948C46.38 6.77015 46.1764 6.97008 45.9162 7.0946C45.6507 7.21837 45.3095 7.25053 44.8923 7.19106C44.4805 7.13234 44.1671 7.00685 43.9521 6.81458C43.7318 6.62155 43.5922 6.37269 43.5332 6.06799C43.4736 5.76857 43.4716 5.4235 43.5273 5.03279L43.9078 2.36378C43.9628 1.97834 44.0615 1.64494 44.2039 1.36356C44.3404 1.08671 44.5395 0.880748 44.8011 0.745664C45.0628 0.610579 45.4049 0.573148 45.8273 0.633368ZM45.7584 1.11648C45.4785 1.07659 45.2568 1.10154 45.0932 1.19134C44.9288 1.28642 44.8059 1.43052 44.7245 1.62363C44.637 1.82127 44.5741 2.05472 44.5357 2.324L44.1213 5.23061C44.0829 5.49989 44.0785 5.73898 44.1079 5.9479C44.1321 6.15607 44.2106 6.32349 44.3434 6.45017C44.4754 6.58212 44.6814 6.66805 44.9612 6.70794C45.2463 6.74859 45.4734 6.72439 45.6423 6.63534C45.8052 6.55082 45.93 6.41238 46.0166 6.22002C46.098 6.02691 46.1579 5.79572 46.1963 5.52644L46.6107 2.61983C46.6491 2.35056 46.6566 2.1092 46.6332 1.89575C46.6037 1.68683 46.5233 1.51376 46.392 1.37652C46.2547 1.24381 46.0435 1.15713 45.7584 1.11648Z" fill="#7791A9"/>
<path d="M40.9609 0.415021L41.0931 6.89367L40.4772 6.90624L40.4186 4.03483L38.379 4.07644L38.4376 6.94784L37.8297 6.96024L37.6976 0.48159L38.3055 0.46919L38.3697 3.62053L40.4093 3.57893L40.345 0.427584L40.9609 0.415021Z" fill="#7791A9"/>
<path d="M34.5778 0.93585L35.7532 7.30835L33.4481 7.73354L33.3625 7.26937L35.0618 6.95592L34.6207 4.56426L33.236 4.81967L33.1547 4.37911L34.5394 4.1237L34.0547 1.49603L32.3396 1.81238L32.2569 1.36395L34.5778 0.93585Z" fill="#7791A9"/>
<path d="M28.3547 2.48219L30.5427 8.58163L29.0818 9.10567C28.7154 9.23712 28.4024 9.2729 28.1429 9.21299C27.8835 9.15308 27.6679 9.01795 27.4961 8.8076C27.3193 8.59904 27.1723 8.33162 27.0553 8.00531C26.9526 7.71916 26.9049 7.43599 26.912 7.15579C26.916 6.88241 26.9997 6.63421 27.1634 6.41119C27.322 6.18997 27.5745 6.01724 27.9209 5.89298L28.817 5.57154L27.7824 2.68748L28.3547 2.48219ZM28.971 6.00076L28.2405 6.26278C27.9946 6.35101 27.8089 6.45729 27.6835 6.58159C27.5549 6.71272 27.486 6.87623 27.477 7.07212C27.4679 7.26802 27.5156 7.51155 27.6201 7.80272C27.7317 8.11396 27.8483 8.34413 27.9697 8.4932C28.093 8.64729 28.2416 8.72996 28.4157 8.7412C28.5865 8.75926 28.8074 8.71966 29.0785 8.62242L29.8164 8.3577L28.971 6.00076Z" fill="#7791A9"/>
<path d="M22.4772 5.00548L25.6204 10.6721L25.0817 10.9709L23.6886 8.45941L21.9047 9.44893L23.2978 11.9604L22.7661 12.2554L19.6229 6.58871L20.1546 6.2938L21.6835 9.05017L23.4674 8.06065L21.9385 5.30428L22.4772 5.00548Z" fill="#7791A9"/>
<path d="M15.8153 9.34192C16.1544 9.07418 16.4714 8.92916 16.7664 8.90687C17.0605 8.89206 17.3399 8.97045 17.6045 9.14204C17.8683 9.32112 18.1208 9.56343 18.3621 9.86897L20.028 11.9785C20.2726 12.2882 20.4444 12.5875 20.5433 12.8763C20.6414 13.1726 20.6459 13.4579 20.5567 13.7322C20.4633 14.0099 20.2513 14.2792 19.9206 14.5404C19.5942 14.7982 19.2872 14.9387 18.9997 14.9619C18.708 14.9883 18.4315 14.9179 18.1701 14.7505C17.9121 14.5873 17.6608 14.3508 17.4162 14.0411L15.7453 11.9253C15.504 11.6197 15.3306 11.3184 15.225 11.0212C15.1186 10.7315 15.1066 10.4453 15.1892 10.1626C15.2718 9.87991 15.4805 9.60635 15.8153 9.34192ZM16.1178 9.7249C15.8959 9.90008 15.7611 10.0779 15.7134 10.2583C15.6689 10.443 15.6885 10.6313 15.7723 10.8235C15.8551 11.023 15.9809 11.2296 16.1494 11.443L17.9691 13.7472C18.1376 13.9606 18.3077 14.1287 18.4794 14.2514C18.6469 14.3774 18.8222 14.436 19.0055 14.4271C19.1921 14.4225 19.3964 14.3326 19.6182 14.1574C19.8442 13.9789 19.9832 13.7978 20.0352 13.614C20.0863 13.4378 20.072 13.2519 19.9925 13.0565C19.9087 12.8644 19.7826 12.6616 19.614 12.4482L17.7944 10.144C17.6258 9.93055 17.4561 9.75873 17.2853 9.62855C17.1137 9.50586 16.9329 9.44475 16.743 9.44522C16.5522 9.45318 16.3438 9.5464 16.1178 9.7249Z" fill="#7791A9"/>
<path d="M12.302 12.7161L17.0857 17.0871L15.5046 18.8175L15.1562 18.4991L16.3218 17.2235L14.5264 15.583L13.5766 16.6224L13.2459 16.3202L14.1957 15.2808L12.2231 13.4784L11.0467 14.7659L10.71 14.4583L12.302 12.7161Z" fill="#7791A9"/>
<path d="M4.92996 23.4683C5.11737 23.079 5.33877 22.8098 5.59417 22.6604C5.85205 22.5182 6.13753 22.4663 6.45059 22.5045C6.76614 22.5499 7.09931 22.6571 7.4501 22.826L9.87199 23.9921C10.2276 24.1633 10.5131 24.357 10.7287 24.5732C10.9467 24.7966 11.0757 25.0511 11.1158 25.3368C11.1535 25.6272 11.081 25.9623 10.8982 26.3419C10.7177 26.7167 10.5034 26.9775 10.2551 27.1243C10.0045 27.276 9.72507 27.3338 9.41681 27.2979C9.11337 27.2642 8.78384 27.1618 8.42825 26.9906L5.99915 25.821C5.64836 25.6521 5.36039 25.4572 5.13525 25.2364C4.91261 25.0226 4.77646 24.7706 4.7268 24.4803C4.67715 24.1901 4.74487 23.8527 4.92996 23.4683ZM5.36965 23.68C5.24702 23.9347 5.20378 24.1536 5.2399 24.3367C5.28084 24.5222 5.38104 24.6829 5.54051 24.8188C5.70246 24.9619 5.90598 25.0925 6.15105 25.2105L8.79639 26.4842C9.04146 26.6022 9.26803 26.6787 9.47608 26.7138C9.68182 26.7536 9.86513 26.7294 10.026 26.6411C10.1917 26.5552 10.3359 26.3849 10.4585 26.1302C10.5834 25.8707 10.629 25.647 10.5952 25.459C10.5639 25.2782 10.4696 25.1174 10.3125 24.9766C10.153 24.8406 9.95074 24.7137 9.70567 24.5957L7.06033 23.322C6.81526 23.204 6.58745 23.1239 6.3769 23.0817C6.16885 23.0467 5.97957 23.0709 5.80907 23.1546C5.64106 23.2454 5.49459 23.4205 5.36965 23.68Z" fill="#7791A9"/>
<path d="M3.25052 28.0407L9.46599 29.8733L8.73071 32.3672L8.29333 32.2382L8.8544 30.3352L6.68282 29.6949L6.53577 30.1937C6.4151 30.6029 6.25237 30.9192 6.04756 31.1424C5.84635 31.3722 5.59389 31.5118 5.29017 31.5613C4.98645 31.6107 4.61718 31.5714 4.18235 31.4432C3.90099 31.3602 3.66013 31.253 3.45976 31.1217C3.2594 30.9903 3.1036 30.8304 2.99236 30.6419C2.87962 30.4585 2.8155 30.2423 2.80002 29.993C2.78814 29.7504 2.82895 29.4706 2.92247 29.1534L3.25052 28.0407ZM3.52137 28.7628L3.36526 29.2923C3.2808 29.5788 3.25717 29.8192 3.29436 30.0137C3.33516 30.2148 3.444 30.3831 3.62089 30.5186C3.79626 30.6593 4.04254 30.7764 4.3597 30.8699C4.80988 31.0026 5.17571 31.016 5.45719 30.9099C5.74228 30.8105 5.95119 30.5357 6.08392 30.0855L6.23776 29.5637L3.52137 28.7628Z" fill="#7791A9"/>
<path d="M0.176505 38.9128L1.2889 38.9696L1.78875 34.3807L8.23065 35.0824L8.16394 35.6948L2.17537 35.0425L2.02116 36.4581L8.00974 37.1104L7.9439 37.7149L1.95532 37.0625L1.80632 38.4304L7.7949 39.0828L7.72819 39.6951L1.73962 39.0428L1.68331 39.5598L0.124526 39.39L0.176505 38.9128Z" fill="#7791A9"/>
<path d="M1.45282 41.9555L7.91708 41.5042L8.08036 43.8425L7.6095 43.8754L7.48914 42.1516L5.06304 42.321L5.16112 43.7255L4.71421 43.7567L4.61613 42.3522L1.95062 42.5383L2.0721 44.278L1.61721 44.3098L1.45282 41.9555Z" fill="#7791A9"/>
<path d="M2.55717 49.7952C2.45673 49.3695 2.4672 49.0191 2.58857 48.7439C2.71116 48.4738 2.90999 48.2598 3.18504 48.1017C3.46528 47.9424 3.78708 47.8199 4.15044 47.7342L6.65759 47.1426C7.0469 47.0507 7.3999 47.014 7.71659 47.0324C8.03452 47.0561 8.30409 47.1651 8.52531 47.3594C8.74653 47.5538 8.90614 47.8587 9.00412 48.2739C9.09354 48.6529 9.09068 48.9659 8.99556 49.213C8.90166 49.4653 8.73077 49.67 8.4829 49.8271C8.24021 49.983 7.9346 50.1045 7.56605 50.1914L7.18453 50.2815L7.05225 49.7209L7.4182 49.6345C7.69331 49.5696 7.92398 49.4905 8.11021 49.3972C8.29766 49.3092 8.42996 49.1848 8.50712 49.0241C8.58429 48.8634 8.59224 48.6533 8.531 48.3938C8.46364 48.1083 8.35311 47.907 8.19943 47.7898C8.05216 47.6766 7.86599 47.6191 7.64092 47.6174C7.41708 47.6209 7.165 47.6558 6.8847 47.7219L4.19847 48.3558C3.88702 48.4292 3.63422 48.519 3.44006 48.6251C3.24713 48.7364 3.1159 48.877 3.04638 49.0468C2.97686 49.2167 2.97272 49.4313 3.03396 49.6909C3.09643 49.9556 3.20007 50.1394 3.34489 50.2422C3.49093 50.3502 3.67007 50.4011 3.88231 50.3949C4.10097 50.3926 4.34785 50.359 4.62296 50.2941L5.03563 50.1967L5.16791 50.7573L4.79417 50.8455C4.42563 50.9325 4.0882 50.9655 3.78188 50.9446C3.48198 50.9277 3.22585 50.8292 3.0135 50.6492C2.80236 50.4743 2.65026 50.1897 2.55717 49.7952Z" fill="#7791A9"/>
<path d="M4.446 55.1831L9.99428 52.8782L9.52471 51.7478L9.96059 51.5668L11.1207 54.3594L10.6848 54.5405L10.2275 53.4397L4.67925 55.7446L4.446 55.1831Z" fill="#7791A9"/>
<path d="M6.95327 60.1973L12.4581 56.7786L13.1925 57.9611C13.3472 58.2103 13.4463 58.4407 13.4898 58.6522C13.5333 58.8638 13.5263 59.0596 13.4687 59.2398C13.411 59.42 13.3102 59.5862 13.1662 59.7384C13.0295 59.8924 12.8592 60.0327 12.6553 60.1593C12.4786 60.269 12.2924 60.3533 12.0966 60.4121C11.9082 60.4726 11.7241 60.4896 11.5444 60.4631C11.3693 60.4338 11.2073 60.3397 11.0585 60.181C11.1318 60.4305 11.134 60.6615 11.065 60.8739C11.0005 61.0834 10.8872 61.2699 10.725 61.4334C10.5702 61.5986 10.3932 61.7431 10.1938 61.8669C9.97633 62.002 9.75753 62.1096 9.53738 62.1898C9.32458 62.2718 9.11474 62.3079 8.90785 62.2983C8.70378 62.2932 8.50665 62.2335 8.31646 62.1194C8.1308 62.0024 7.95778 61.8147 7.79739 61.5565L6.95327 60.1973ZM7.66141 60.4732L8.12146 61.214C8.34375 61.5719 8.58888 61.7493 8.85685 61.7461C9.12765 61.7474 9.46919 61.6201 9.88148 61.364C10.1035 61.2261 10.2837 61.0766 10.4221 60.9153C10.5605 60.754 10.6365 60.5781 10.65 60.3876C10.6709 60.1988 10.6124 59.9935 10.4745 59.7715L10.0061 59.0171L7.66141 60.4732ZM10.407 58.7681L10.8713 59.5156C11.0035 59.7286 11.1456 59.8664 11.2975 59.929C11.4539 59.9888 11.6187 59.9963 11.7918 59.9516C11.9695 59.9041 12.1602 59.817 12.3641 59.6904C12.5861 59.5525 12.7499 59.4068 12.8555 59.2533C12.9639 59.1044 13.0057 58.9341 12.9808 58.7424C12.9559 58.5506 12.8562 58.3143 12.6818 58.0334L12.3779 57.5441L10.407 58.7681Z" fill="#7791A9"/>
<path d="M11.6086 66.6304C11.3244 66.305 11.164 65.9955 11.1272 65.702C11.0979 65.409 11.1624 65.1261 11.3207 64.8533C11.4866 64.581 11.7162 64.3169 12.0094 64.0608L14.0343 62.2929C14.3316 62.0334 14.622 61.847 14.9056 61.734C15.1967 61.6214 15.4815 61.6029 15.7598 61.6784C16.0417 61.758 16.3212 61.9565 16.5983 62.2739C16.8719 62.5872 17.0274 62.8869 17.0647 63.1729C17.1055 63.463 17.0488 63.7426 16.8945 64.0119C16.7442 64.2776 16.5204 64.5403 16.2231 64.7999L14.1922 66.573C13.899 66.8291 13.6065 67.0172 13.3149 67.1373C13.0308 67.2579 12.7455 67.2839 12.4591 67.2154C12.1727 67.1468 11.8892 66.9518 11.6086 66.6304ZM11.9762 66.3095C12.1621 66.5224 12.3463 66.6483 12.5289 66.6871C12.7155 66.7224 12.9027 66.6935 13.0904 66.6004C13.2857 66.5078 13.4858 66.3721 13.6907 66.1932L15.9023 64.2622C16.1072 64.0833 16.2667 63.9051 16.3808 63.7276C16.4984 63.5541 16.5482 63.3761 16.5304 63.1934C16.5165 63.0073 16.4166 62.8077 16.2307 62.5948C16.0413 62.3779 15.8535 62.248 15.6675 62.2051C15.4889 62.1628 15.304 62.1862 15.1127 62.2753C14.925 62.3684 14.7287 62.5044 14.5238 62.6833L12.3121 64.6143C12.1072 64.7932 11.944 64.9711 11.8224 65.1481C11.7083 65.3256 11.6562 65.5092 11.666 65.6988C11.6834 65.889 11.7868 66.0925 11.9762 66.3095Z" fill="#7791A9"/>
<path d="M21.6214 73.7421L21.4104 71.5681L21.5467 71.3514L23.5976 70.5999L23.1972 71.2364L21.8916 71.7195L22.0174 73.1123L21.6214 73.7421ZM20.5107 73.0436L20.3066 70.8738L20.4428 70.6571L22.487 69.9014L22.0866 70.538L20.7921 71.0185L20.9068 72.4138L20.5107 73.0436Z" fill="#7791A9"/>
<path d="M24.9472 76.1986L27.4702 70.2277L28.0359 70.4505L27.1664 76.1524L30.4402 71.3972L31.0059 71.62L28.7807 77.708L28.3118 77.5234L30.0832 72.6753L27.0389 77.0222L26.6742 76.8786L27.4228 71.6363L25.4162 76.3832L24.9472 76.1986Z" fill="#7791A9"/>
<path d="M32.8233 78.7189L33.9879 72.3444L34.5938 72.4551L34.0777 75.2803L36.0845 75.647L36.6006 72.8217L37.1987 72.931L36.0342 79.3055L35.4361 79.1962L36.0026 76.0955L33.9958 75.7289L33.4293 78.8296L32.8233 78.7189Z" fill="#7791A9"/>
<path d="M39.8687 79.5606L39.8323 73.0807L40.3763 73.0776L40.4052 78.2135L42.4723 73.0658L42.9443 73.0632L42.9807 79.5431L42.4367 79.5461L42.4077 74.3862L40.3487 79.5579L39.8687 79.5606Z" fill="#7791A9"/>
<path d="M47.4911 79.0281L46.255 72.6671L49.5062 72.0353L50.7423 78.3963L50.1455 78.5123L48.9964 72.5989L46.9389 72.9987L48.088 78.9121L47.4911 79.0281Z" fill="#7791A9"/>
<path d="M54.3516 77.2486L51.9586 71.2266L52.4641 71.0257L54.3608 75.7987L54.412 70.2517L54.8506 70.0774L57.2436 76.0993L56.738 76.3002L54.8325 71.505L54.7976 77.0713L54.3516 77.2486Z" fill="#7791A9"/>
<path d="M60.7316 73.4856L60.3386 72.8538L60.4985 71.4448L59.1682 70.9721L58.771 70.3336L60.8521 71.0741L60.9873 71.2915L60.7316 73.4856ZM61.8457 72.7926L61.4527 72.1609L61.6168 70.7586L60.2822 70.2792L59.8851 69.6406L61.9594 70.3854L62.0946 70.6028L61.8457 72.7926Z" fill="#7791A9"/>
<defs>
<clipPath id="clip0_8_2">
<rect width="55" height="55" fill="white" transform="translate(14 13)"/>
</clipPath>
</defs>
</svg>
